<svg width="18" height="18" viewBox="0 0 18 18" xmlns="http://www.w3.org/2000/svg">
<mask id="mask0_2546_27839" style="mask-type:alpha" maskUnits="userSpaceOnUse" x="0" y="0" width="18" height="18">
<rect width="18" height="18" fill="#D9D9D9"/>
</mask>
<g mask="url(#mask0_2546_27839)">
<path d="M6.67121 14.8334V11.9168C6.67121 11.4527 6.85558 11.0076 7.18375 10.6794C7.51193 10.3512 7.95704 10.1668 8.42115 10.1668H9.58778C10.0519 10.1668 10.497 10.3512 10.8252 10.6794C11.1534 11.0076 11.3377 11.4527 11.3377 11.9168V14.8334H13.671V9.00022C13.671 8.84551 13.7324 8.69714 13.8418 8.58775C13.9512 8.47836 14.0996 8.4169 14.2543 8.4169C14.409 8.4169 14.5574 8.47836 14.6668 8.58775C14.7762 8.69714 14.8376 8.84551 14.8376 9.00022V15.4167C14.8376 15.7387 14.5763 16 14.2543 16H3.75463C3.43264 16 3.17131 15.7387 3.17131 15.4167V9.00022C3.17131 8.92361 3.1864 8.84776 3.21572 8.77699C3.24503 8.70622 3.288 8.64192 3.34216 8.58775C3.39633 8.53358 3.46063 8.49062 3.5314 8.4613C3.60218 8.43199 3.67803 8.4169 3.75463 8.4169C3.83123 8.4169 3.90708 8.43199 3.97786 8.4613C4.04863 8.49062 4.11293 8.53358 4.1671 8.58775C4.22126 8.64192 4.26423 8.70622 4.29354 8.77699C4.32286 8.84776 4.33795 8.92361 4.33795 9.00022V14.8334H6.67121V14.8334ZM7.83784 14.8334H10.1711V11.9168C10.1711 11.5948 9.90977 11.3335 9.58778 11.3335H8.42115C8.09916 11.3335 7.83784 11.5948 7.83784 11.9168V14.8334ZM6.08789 7.83359H11.921C12.0758 7.83359 12.2241 7.89504 12.3335 8.00443C12.4429 8.11383 12.5044 8.2622 12.5044 8.4169C12.5044 8.57161 12.4429 8.71997 12.3335 8.82937C12.2241 8.93876 12.0758 9.00022 11.921 9.00022H6.08789C5.93319 9.00022 5.78482 8.93876 5.67543 8.82937C5.56603 8.71997 5.50458 8.57161 5.50458 8.4169C5.50458 8.2622 5.56603 8.11383 5.67543 8.00443C5.78482 7.89504 5.93319 7.83359 6.08789 7.83359V7.83359ZM9.00447 3.30519L2.93099 7.72159C2.86909 7.76754 2.7987 7.80076 2.72388 7.81934C2.64906 7.83791 2.5713 7.84147 2.4951 7.82981C2.4189 7.81816 2.34576 7.79151 2.27992 7.75141C2.21408 7.71132 2.15684 7.65857 2.11151 7.59621C2.06618 7.53386 2.03365 7.46314 2.01582 7.38814C1.99799 7.31315 1.9952 7.23536 2.00761 7.15927C2.02003 7.08319 2.0474 7.01032 2.08815 6.94488C2.12889 6.87944 2.18221 6.82273 2.24501 6.77802L8.66148 2.11149C8.76116 2.03903 8.88123 2 9.00447 2C9.12771 2 9.24778 2.03903 9.34746 2.11149L15.7639 6.77802C15.8873 6.86963 15.9696 7.00625 15.9929 7.15818C16.0161 7.31012 15.9784 7.46508 15.8881 7.5894C15.7977 7.71373 15.6619 7.79735 15.5102 7.8221C15.3585 7.84685 15.2032 7.81073 15.0779 7.72159L9.00447 3.30519Z" fill="#3D434D"/>
</g>
</svg>
