<?xml version="1.0" encoding="UTF-8"?>
<svg width="20px" height="20px" viewBox="0 0 20 20" version="1.1" xmlns="http://www.w3.org/2000/svg">
    <path d="M9.25,4.25 L4.5,4.25 C4.3625,4.25 4.25,4.3625 4.25,4.5 L4.25,9.25 C4.25,9.3875 4.3625,9.5 4.5,9.5 L9.25,9.5 C9.3875,9.5 9.5,9.3875 9.5,9.25 L9.5,4.5 C9.5,4.3625 9.3875,4.25 9.25,4.25 Z M8.4375,8.4375 L5.3125,8.4375 L5.3125,5.3125 L8.4375,5.3125 L8.4375,8.4375 Z M15.5,4.25 L10.75,4.25 C10.6125,4.25 10.5,4.3625 10.5,4.5 L10.5,9.25 C10.5,9.3875 10.6125,9.5 10.75,9.5 L15.5,9.5 C15.6375,9.5 15.75,9.3875 15.75,9.25 L15.75,4.5 C15.75,4.3625 15.6375,4.25 15.5,4.25 Z M14.6875,8.4375 L11.5625,8.4375 L11.5625,5.3125 L14.6875,5.3125 L14.6875,8.4375 Z M9.25,10.5 L4.5,10.5 C4.3625,10.5 4.25,10.6125 4.25,10.75 L4.25,15.5 C4.25,15.6375 4.3625,15.75 4.5,15.75 L9.25,15.75 C9.3875,15.75 9.5,15.6375 9.5,15.5 L9.5,10.75 C9.5,10.6125 9.3875,10.5 9.25,10.5 Z M8.4375,14.6875 L5.3125,14.6875 L5.3125,11.5625 L8.4375,11.5625 L8.4375,14.6875 Z M15.5,10.5 L10.75,10.5 C10.6125,10.5 10.5,10.6125 10.5,10.75 L10.5,15.5 C10.5,15.6375 10.6125,15.75 10.75,15.75 L15.5,15.75 C15.6375,15.75 15.75,15.6375 15.75,15.5 L15.75,10.75 C15.75,10.6125 15.6375,10.5 15.5,10.5 Z M14.6875,14.6875 L11.5625,14.6875 L11.5625,11.5625 L14.6875,11.5625 L14.6875,14.6875 Z"></path>
</svg>