<svg width="128" height="128" viewBox="0 0 128 128" xmlns="http://www.w3.org/2000/svg" xmlns:xlink="http://www.w3.org/1999/xlink">
<path fill-rule="evenodd" clip-rule="evenodd" d="M1.86016 9.31856C0 12.9693 0 17.7484 0 27.3067V100.693C0 110.252 0 115.031 1.86016 118.681C3.49639 121.893 6.10726 124.504 9.31856 126.14C12.9693 128 17.7484 128 27.3067 128H100.693C110.252 128 115.031 128 118.681 126.14C121.893 124.504 124.504 121.893 126.14 118.681C128 115.031 128 110.252 128 100.693V27.3067C128 17.7484 128 12.9693 126.14 9.31856C124.504 6.10726 121.893 3.49639 118.681 1.86016C115.031 0 110.252 0 100.693 0H27.3067C17.7484 0 12.9693 0 9.31856 1.86016C6.10726 3.49639 3.49639 6.10726 1.86016 9.31856ZM75.5503 18.3163C77.2166 19.9826 77.2166 22.6841 75.5503 24.3503L41.417 58.4837C39.7508 60.1499 37.0493 60.1499 35.383 58.4837L18.3163 41.417C16.6501 39.7508 16.6501 37.0493 18.3163 35.383C19.9826 33.7168 22.6841 33.7168 24.3503 35.383L38.4 49.4327L69.5163 18.3163C71.1826 16.6501 73.8841 16.6501 75.5503 18.3163ZM85.3334 21.3334C85.3334 18.9769 87.2436 17.0667 89.6 17.0667H106.667C109.023 17.0667 110.933 18.9769 110.933 21.3334C110.933 23.6898 109.023 25.6 106.667 25.6H89.6C87.2436 25.6 85.3334 23.6898 85.3334 21.3334ZM68.2667 46.9333C68.2667 44.5769 70.1769 42.6667 72.5334 42.6667H106.667C109.023 42.6667 110.933 44.5769 110.933 46.9333C110.933 49.2898 109.023 51.2 106.667 51.2H72.5333C70.1769 51.2 68.2667 49.2898 68.2667 46.9333ZM21.3334 68.2667C18.9769 68.2667 17.0667 70.1769 17.0667 72.5333C17.0667 74.8898 18.9769 76.8 21.3334 76.8H106.667C109.023 76.8 110.933 74.8898 110.933 72.5333C110.933 70.1769 109.023 68.2667 106.667 68.2667H21.3334ZM17.0667 98.1334C17.0667 95.7769 18.9769 93.8667 21.3334 93.8667H106.667C109.023 93.8667 110.933 95.7769 110.933 98.1334C110.933 100.49 109.023 102.4 106.667 102.4H21.3334C18.9769 102.4 17.0667 100.49 17.0667 98.1334Z" fill="#7C8CA7"/>
</svg>
