<svg width="128" height="128" viewBox="0 0 128 128" xmlns="http://www.w3.org/2000/svg" xmlns:xlink="http://www.w3.org/1999/xlink">
<path fill-rule="evenodd" clip-rule="evenodd" d="M1.86016 9.31856C0 12.9693 0 17.7484 0 27.3067V100.693C0 110.252 0 115.031 1.86016 118.681C3.49639 121.893 6.10726 124.504 9.31856 126.14C12.9693 128 17.7484 128 27.3067 128H100.693C110.252 128 115.031 128 118.681 126.14C121.893 124.504 124.504 121.893 126.14 118.681C128 115.031 128 110.252 128 100.693V27.3067C128 17.7484 128 12.9693 126.14 9.31856C124.504 6.10726 121.893 3.49639 118.681 1.86016C115.031 0 110.252 0 100.693 0H27.3067C17.7484 0 12.9693 0 9.31856 1.86016C6.10726 3.49639 3.49639 6.10726 1.86016 9.31856ZM76.8 46.9333V38.4C76.8 31.3308 71.0692 25.6 64 25.6C56.9308 25.6 51.2 31.3308 51.2 38.4V46.9333C51.2 54.0026 56.9308 59.7333 64 59.7333C71.0692 59.7333 76.8 54.0026 76.8 46.9333ZM64 17.0667C52.2179 17.0667 42.6667 26.6179 42.6667 38.4V46.9333C42.6667 58.7154 52.2179 68.2667 64 68.2667C75.7821 68.2667 85.3333 58.7154 85.3333 46.9333V38.4C85.3333 26.6179 75.7821 17.0667 64 17.0667ZM51.2 85.3333C41.7743 85.3333 34.1333 92.9743 34.1333 102.4H93.8667C93.8667 92.9743 86.2257 85.3333 76.8 85.3333H51.2ZM51.2 76.8C37.0615 76.8 25.6 88.2615 25.6 102.4C25.6 107.113 29.4205 110.933 34.1333 110.933H93.8667C98.5795 110.933 102.4 107.113 102.4 102.4C102.4 88.2615 90.9385 76.8 76.8 76.8H51.2Z" fill="#7C8CA7"/>
</svg>
