<?xml version="1.0" encoding="UTF-8"?>
<svg width="20px" height="20px" viewBox="0 0 20 20" version="1.1" xmlns="http://www.w3.org/2000/svg">
    <path d="M14.75,14 L14.375,14 L14.375,8.6875 C14.375,6.4828125 12.7453125,4.6609375 10.625,4.3578125 L10.625,3.75 C10.625,3.4046875 10.3453125,3.125 10,3.125 C9.6546875,3.125 9.375,3.4046875 9.375,3.75 L9.375,4.3578125 C7.2546875,4.6609375 5.625,6.4828125 5.625,8.6875 L5.625,14 L5.25,14 C4.9734375,14 4.75,14.2234375 4.75,14.5 L4.75,15 C4.75,15.06875 4.80625,15.125 4.875,15.125 L8.25,15.125 C8.25,16.090625 9.034375,16.875 10,16.875 C10.965625,16.875 11.75,16.090625 11.75,15.125 L15.125,15.125 C15.19375,15.125 15.25,15.06875 15.25,15 L15.25,14.5 C15.25,14.2234375 15.0265625,14 14.75,14 Z M10,15.875 C9.5859375,15.875 9.25,15.5390625 9.25,15.125 L10.75,15.125 C10.75,15.5390625 10.4140625,15.875 10,15.875 Z M6.75,14 L6.75,8.6875 C6.75,7.81875 7.0875,7.003125 7.7015625,6.3890625 C8.315625,5.775 9.13125,5.4375 10,5.4375 C10.86875,5.4375 11.684375,5.775 12.2984375,6.3890625 C12.9125,7.003125 13.25,7.81875 13.25,8.6875 L13.25,14 L6.75,14 Z"></path>
</svg>