<?xml version="1.0" encoding="UTF-8"?>
<svg width="20px" height="20px" viewBox="0 0 20 20" version="1.1" xmlns="http://www.w3.org/2000/svg">
    <path d="M12.75,6.125 C12.75,6.05625 12.69375,6 12.625,6 L6.625,6 C6.55625,6 6.5,6.05625 6.5,6.125 L6.5,6.875 C6.5,6.94375 6.55625,7 6.625,7 L12.625,7 C12.69375,7 12.75,6.94375 12.75,6.875 L12.75,6.125 Z M12.625,8.25 L6.625,8.25 C6.55625,8.25 6.5,8.30625 6.5,8.375 L6.5,9.125 C6.5,9.19375 6.55625,9.25 6.625,9.25 L12.625,9.25 C12.69375,9.25 12.75,9.19375 12.75,9.125 L12.75,8.375 C12.75,8.30625 12.69375,8.25 12.625,8.25 Z M9.5,10.5 L6.625,10.5 C6.55625,10.5 6.5,10.55625 6.5,10.625 L6.5,11.375 C6.5,11.44375 6.55625,11.5 6.625,11.5 L9.5,11.5 C9.56875,11.5 9.625,11.44375 9.625,11.375 L9.625,10.625 C9.625,10.55625 9.56875,10.5 9.5,10.5 Z M8.75,15.3125 L5.25,15.3125 L5.25,4.3125 L14,4.3125 L14,9.6875 C14,9.75625 14.05625,9.8125 14.125,9.8125 L15,9.8125 C15.06875,9.8125 15.125,9.75625 15.125,9.6875 L15.125,3.6875 C15.125,3.4109375 14.9015625,3.1875 14.625,3.1875 L4.625,3.1875 C4.3484375,3.1875 4.125,3.4109375 4.125,3.6875 L4.125,15.9375 C4.125,16.2140625 4.3484375,16.4375 4.625,16.4375 L8.75,16.4375 C8.81875,16.4375 8.875,16.38125 8.875,16.3125 L8.875,15.4375 C8.875,15.36875 8.81875,15.3125 8.75,15.3125 Z M14.325,14.15 C14.778125,13.7390625 15.0625,13.1453125 15.0625,12.484375 C15.0625,11.2421875 14.0546875,10.234375 12.8125,10.234375 C11.5703125,10.234375 10.5625,11.2421875 10.5625,12.484375 C10.5625,13.1453125 10.846875,13.7390625 11.3,14.15 C10.409375,14.6578125 9.796875,15.5984375 9.75,16.6828125 C9.746875,16.753125 9.8046875,16.8125 9.875,16.8125 L10.6265625,16.8125 C10.6921875,16.8125 10.746875,16.7609375 10.7515625,16.69375 C10.8125,15.6125 11.7140625,14.75 12.8125,14.75 C13.9109375,14.75 14.8125,15.6125 14.8734375,16.69375 C14.8765625,16.759375 14.93125,16.8125 14.9984375,16.8125 L15.75,16.8125 C15.821875,16.8125 15.878125,16.753125 15.875,16.6828125 C15.8296875,15.596875 15.215625,14.6578125 14.325,14.15 Z M12.8125,11.234375 C13.503125,11.234375 14.0625,11.79375 14.0625,12.484375 C14.0625,13.175 13.503125,13.734375 12.8125,13.734375 C12.121875,13.734375 11.5625,13.175 11.5625,12.484375 C11.5625,11.79375 12.121875,11.234375 12.8125,11.234375 Z"></path>
</svg>