<?xml version="1.0" encoding="UTF-8"?>
<svg width="20px" height="20px" viewBox="0 0 20 20" version="1.1" xmlns="http://www.w3.org/2000/svg">
    <path d="M15.5,10.09375 L9.90625,10.09375 L9.90625,4.5 C9.90625,4.43125 9.85,4.375 9.78125,4.375 L9.375,4.375 C8.53125,4.375 7.7125,4.540625 6.9421875,4.865625 C6.1984375,5.1796875 5.5296875,5.63125 4.95625,6.2046875 C4.3828125,6.778125 3.93125,7.446875 3.6171875,8.190625 C3.290625,8.9625 3.125,9.78125 3.125,10.625 C3.125,11.46875 3.290625,12.2875 3.615625,13.0578125 C3.9296875,13.8015625 4.38125,14.4703125 4.9546875,15.04375 C5.528125,15.6171875 6.196875,16.06875 6.940625,16.3828125 C7.7125,16.709375 8.53125,16.875 9.375,16.875 C10.21875,16.875 11.0375,16.709375 11.8078125,16.384375 C12.5515625,16.0703125 13.2203125,15.61875 13.79375,15.0453125 C14.3671875,14.471875 14.81875,13.803125 15.1328125,13.059375 C15.459375,12.2875 15.625,11.46875 15.625,10.625 L15.625,10.21875 C15.625,10.15 15.56875,10.09375 15.5,10.09375 Z M13.0265625,14.309375 C12.0484375,15.2796875 10.728125,15.81875 9.35,15.8125537 C7.9734375,15.80625 6.6796875,15.2671875 5.70625,14.29375 C4.7265625,13.3140625 4.1875,12.0109375 4.1875,10.625 C4.1875,9.2390625 4.7265625,7.9359375 5.70625,6.95625 C6.559375,6.103125 7.6578125,5.5828125 8.84375,5.4640625 L8.84375,11.15625 L14.5359375,11.15625 C14.415625,12.3484375 13.890625,13.453125 13.0265625,14.309375 Z M16.875,9.225 L16.834375,8.784375 C16.7015625,7.3453125 16.0625,5.9875 15.034375,4.9625 C14.00625,3.9359375 12.646875,3.2984375 11.203125,3.165625 L10.7609375,3.125 C10.6875,3.11875 10.625,3.175 10.625,3.2484375 L10.625,9.25 C10.625,9.31875 10.68125,9.375 10.75,9.375 L16.75,9.359375 C16.8234375,9.359375 16.88125,9.296875 16.875,9.225 Z M11.684375,8.315625 L11.684375,4.30625 C12.6625,4.5109375 13.5703125,4.996875 14.284375,5.709375 C14.9984375,6.421875 15.4875,7.328125 15.690625,8.3046875 L11.684375,8.315625 Z"></path>
</svg>