<svg width="20px" height="20px" viewBox="0 0 20 20" xmlns="http://www.w3.org/2000/svg">
    <path d="M14.878125,12.9359375 C14.48125,12.5390625 14.0234375,12.221875 13.528125,11.9921875 C14.2359375,11.41875 14.6875,10.54375 14.6875,9.5625 C14.6875,7.83125 13.24375,6.4109375 11.5125,6.4375 C9.8078125,6.4640625 8.434375,7.853125 8.434375,9.5625 C8.434375,10.54375 8.8875,11.41875 9.59375,11.9921875 C9.0984375,12.221875 8.6421875,12.5375 8.24375,12.9359375 C7.390625,13.790625 6.90625,14.91875 6.87496822,16.121875 C6.8734375,16.1921875 6.9296875,16.25 7,16.25 L7.875,16.25 C7.9421875,16.25 7.9984375,16.196875 8,16.1296875 C8.0296875,15.2234375 8.396875,14.375 9.0421875,13.73125 C9.715625,13.0578125 10.6109375,12.6875 11.5625,12.6875 C12.5140625,12.6875 13.409375,13.0578125 14.0828125,13.73125 C14.7265625,14.375 15.09375,15.2234375 15.125,16.1296875 C15.1265625,16.196875 15.1828125,16.25 15.25,16.25 L16.125,16.25 C16.1953125,16.25 16.2515625,16.1921875 16.2500318,16.121875 C16.21875,14.91875 15.734375,13.790625 14.878125,12.9359375 Z M11.5625,11.5625 C11.028125,11.5625 10.525,11.3546875 10.1484375,10.9765625 C9.765625,10.59375 9.55625,10.084375 9.5625,9.5421875 C9.5671875,9.0296875 9.771875,8.534375 10.1296875,8.1671875 C10.5046875,7.7828125 11.00625,7.56875 11.5421875,7.5625 C12.071875,7.5578125 12.5859375,7.7640625 12.9640625,8.134375 C13.3515625,8.5140625 13.5640625,9.021875 13.5640625,9.5625 C13.5640625,10.096875 13.35625,10.5984375 12.978125,10.9765625 C12.6,11.3546875 12.096875,11.5625 11.5625,11.5625 L11.5625,11.5625 Z M7.6484375,9.975 C7.634375,9.8390625 7.6265625,9.7015625 7.6265625,9.5625 C7.6265625,9.3140625 7.65,9.071875 7.69375,8.8359375 C7.7046875,8.7796875 7.675,8.721875 7.6234375,8.6984375 C7.4109375,8.603125 7.215625,8.471875 7.046875,8.30625 C6.64375,7.9125 6.4265625,7.3796875 6.4421875,6.815625 C6.45625,6.3140625 6.6578125,5.8375 7.009375,5.478125 C7.3953125,5.0828125 7.9140625,4.8671875 8.465625,4.8734375 C8.9640625,4.878125 9.4453125,5.0703125 9.809375,5.4109375 C9.9328125,5.5265625 10.0390625,5.6546875 10.128125,5.7921875 C10.159375,5.840625 10.2203125,5.8609375 10.2734375,5.8421875 C10.5484375,5.746875 10.8390625,5.6796875 11.1375,5.6484375 C11.225,5.6390625 11.275,5.5453125 11.2359375,5.4671875 C10.728125,4.4625 9.690625,3.76875 8.490625,3.75 C6.7578125,3.7234375 5.3140625,5.14375 5.3140625,6.8734375 C5.3140625,7.8546875 5.765625,8.7296875 6.4734375,9.303125 C5.9765625,9.5328125 5.51875,9.85 5.121875,10.246875 C4.265625,11.1015625 3.78125,12.2296875 3.74996822,13.434375 C3.7484375,13.5046875 3.8046875,13.5625 3.875,13.5625 L4.7515625,13.5625 C4.81875,13.5625 4.875,13.509375 4.8765625,13.4421875 C4.90625,12.5359375 5.2734375,11.6875 5.91875,11.04375 C6.378125,10.584375 6.940625,10.265625 7.5546875,10.1109375 C7.615625,10.0953125 7.65625,10.0375 7.6484375,9.975 L7.6484375,9.975 Z"></path>
</svg>