<?xml version="1.0" encoding="UTF-8"?>
<svg width="20px" height="20px" viewBox="0 0 20 20" version="1.1" xmlns="http://www.w3.org/2000/svg">
    <path d="M13.859375,7.234375 C13.859375,5.09375 12.125,3.359375 9.984375,3.359375 C7.84375,3.359375 6.109375,5.09375 6.109375,7.234375 C6.109375,8.528125 6.74375,9.675 7.71875,10.378125 C7.7125,10.38125 7.7078125,10.3828125 7.7046875,10.384375 C7.00625,10.6796875 6.3796875,11.103125 5.840625,11.64375 C5.3015625,12.1828125 4.8796875,12.8109375 4.584375,13.5109375 C4.2953125,14.1953125 4.140625,14.921875 4.12496822,15.66875 C4.1234375,15.7390625 4.1796875,15.796875 4.25,15.796875 L5.1859375,15.796875 C5.253125,15.796875 5.309375,15.7421875 5.3109375,15.675 C5.3421875,14.46875 5.825,13.3390625 6.6796875,12.4828125 C7.5625,11.596875 8.734375,11.109375 9.984375,11.109375 C12.125,11.109375 13.859375,9.375 13.859375,7.234375 Z M9.984375,9.921875 C8.5,9.921875 7.296875,8.71875 7.296875,7.234375 C7.296875,5.75 8.5,4.546875 9.984375,4.546875 C11.46875,4.546875 12.671875,5.75 12.671875,7.234375 C12.671875,8.71875 11.46875,9.921875 9.984375,9.921875 Z M11.625,13.375 L15.75,13.375 C15.81875,13.375 15.875,13.31875 15.875,13.25 L15.875,12.375 C15.875,12.30625 15.81875,12.25 15.75,12.25 L12.9921875,12.25 L13.7296875,11.3109375 C13.746875,11.2890625 13.75625,11.2609375 13.75625,11.234375 C13.75625,11.165625 13.7,11.109375 13.63125,11.109375 L12.496875,11.109375 C12.4203125,11.109375 12.3484375,11.1453125 12.3,11.2046875 L11.2296875,12.565625 C11.1609375,12.653125 11.1234375,12.7625 11.1234375,12.875 C11.125,13.1515625 11.3484375,13.375 11.625,13.375 L11.625,13.375 Z M15.375,14.375 L11.25,14.375 C11.18125,14.375 11.125,14.43125 11.125,14.5 L11.125,15.375 C11.125,15.44375 11.18125,15.5 11.25,15.5 L14.0078125,15.5 L13.2703125,16.4390625 C13.253125,16.4609375 13.24375,16.4890625 13.24375,16.515625 C13.24375,16.584375 13.3,16.640625 13.36875,16.640625 L14.503125,16.640625 C14.5796875,16.640625 14.6515625,16.6046875 14.7,16.5453125 L15.7703125,15.184375 C15.8390625,15.096875 15.8765625,14.9875 15.8765625,14.875 C15.875,14.5984375 15.6515625,14.375 15.375,14.375 L15.375,14.375 Z"></path>
</svg>