<svg width="128" height="128" viewBox="0 0 128 128" xmlns="http://www.w3.org/2000/svg" xmlns:xlink="http://www.w3.org/1999/xlink">
<path fill-rule="evenodd" clip-rule="evenodd" d="M0 27.3067C0 17.7484 0 12.9693 1.86016 9.31856C3.49639 6.10726 6.10726 3.49639 9.31856 1.86016C12.9693 0 17.7484 0 27.3067 0H100.693C110.252 0 115.031 0 118.681 1.86016C121.893 3.49639 124.504 6.10726 126.14 9.31856C128 12.9693 128 17.7484 128 27.3067V100.693C128 110.252 128 115.031 126.14 118.681C124.504 121.893 121.893 124.504 118.681 126.14C115.031 128 110.252 128 100.693 128H27.3067C17.7484 128 12.9693 128 9.31856 126.14C6.10726 124.504 3.49639 121.893 1.86016 118.681C0 115.031 0 110.252 0 100.693V27.3067ZM95.6304 71.8507L80.4068 45.4827C76.3752 38.4998 73.6445 33.7878 71.3087 30.4919C68.9475 27.1603 67.7859 26.4732 67.3898 26.3018C65.2273 25.3661 62.7742 25.3661 60.6118 26.3018C60.2157 26.4732 59.054 27.1603 56.6929 30.4919C54.357 33.7878 51.6264 38.4998 47.5948 45.4826L32.3712 71.8507C28.3397 78.8335 25.6243 83.5543 23.9379 87.2252C22.2333 90.9358 22.219 92.2854 22.2686 92.7141C22.5394 95.0547 23.766 97.1792 25.6576 98.584C26.0041 98.8414 27.18 99.5038 31.2458 99.8829C35.2681 100.258 40.714 100.267 48.7772 100.267H79.2243C87.2875 100.267 92.7335 100.258 96.7558 99.8829C100.822 99.5038 101.997 98.8414 102.344 98.584C104.236 97.1792 105.462 95.0547 105.733 92.7141C105.783 92.2854 105.768 90.9358 104.064 87.2252C102.377 83.5544 99.6619 78.8336 95.6304 71.8507ZM57.2228 18.4703C52.0427 20.7119 48.0967 27.5466 40.2047 41.216L24.9811 67.584C17.0891 81.2534 13.1431 88.0881 13.7918 93.6949C14.3335 98.3761 16.7866 102.625 20.5698 105.435C25.1011 108.8 32.9932 108.8 48.7772 108.8H79.2243C95.0084 108.8 102.9 108.8 107.432 105.435C111.215 102.625 113.668 98.3761 114.21 93.6949C114.858 88.0881 110.912 81.2534 103.021 67.5842L103.02 67.584L87.7968 41.2159C79.9048 27.5466 75.9588 20.7119 70.7788 18.4703C66.4539 16.5988 61.5477 16.5988 57.2228 18.4703ZM64.0005 42.6667C62.2527 42.6586 60.5704 43.3383 59.3097 44.562C58.697 45.157 58.209 45.8704 57.8746 46.66C57.5403 47.4495 57.3664 48.2989 57.3634 49.1578C57.3634 52.7472 59.8922 82.4888 63.5575 82.4888C67.2244 82.4888 70.6375 52.7472 70.6375 49.1578C70.6341 48.2991 70.4599 47.4499 70.1252 46.6607C69.7906 45.8714 69.3023 45.1583 68.6895 44.5637C67.4295 43.3398 65.7479 42.6595 64.0005 42.6667ZM68.2667 89.5999C68.2667 91.9563 66.3564 93.8666 64 93.8666C61.6436 93.8666 59.7333 91.9563 59.7333 89.5999C59.7333 87.2435 61.6436 85.3333 64 85.3333C66.3564 85.3333 68.2667 87.2435 68.2667 89.5999Z" fill="#7C8CA7"/>
</svg>
