<?xml version="1.0" encoding="UTF-8"?>
<svg width="20px" height="20px" viewBox="0 0 20 20" version="1.1" xmlns="http://www.w3.org/2000/svg">
    <path d="M15,3.75 L13.3125,3.75 L13.3125,3.125 C13.3125,3.05625 13.25625,3 13.1875,3 L12.3125,3 C12.24375,3 12.1875,3.05625 12.1875,3.125 L12.1875,3.75 L9.8125,3.75 L9.8125,3.125 C9.8125,3.05625 9.75625,3 9.6875,3 L8.8125,3 C8.74375,3 8.6875,3.05625 8.6875,3.125 L8.6875,3.75 L7,3.75 C6.7234375,3.75 6.5,3.9734375 6.5,4.25 L6.5,6.125 L5,6.125 C4.7234375,6.125 4.5,6.3484375 4.5,6.625 L4.5,16.5 C4.5,16.7765625 4.7234375,17 5,17 L13,17 C13.2765625,17 13.5,16.7765625 13.5,16.5 L13.5,15 L15,15 C15.2765625,15 15.5,14.7765625 15.5,14.5 L15.5,4.25 C15.5,3.9734375 15.2765625,3.75 15,3.75 Z M12.375,15.875 L5.625,15.875 L5.625,7.25 L9.03125,7.25 L9.03125,9.96875 C9.03125,10.3140625 9.3109375,10.59375 9.65625,10.59375 L12.375,10.59375 L12.375,15.875 Z M12.375,9.59375 L10.03125,9.59375 L10.03125,7.25 L10.034375,7.25 L12.375,9.590625 L12.375,9.59375 Z M14.375,13.875 L13.5,13.875 L13.5,9.125 L10.5,6.125 L7.625,6.125 L7.625,4.875 L8.6875,4.875 L8.6875,5.375 C8.6875,5.44375 8.74375,5.5 8.8125,5.5 L9.6875,5.5 C9.75625,5.5 9.8125,5.44375 9.8125,5.375 L9.8125,4.875 L12.1875,4.875 L12.1875,5.375 C12.1875,5.44375 12.24375,5.5 12.3125,5.5 L13.1875,5.5 C13.25625,5.5 13.3125,5.44375 13.3125,5.375 L13.3125,4.875 L14.375,4.875 L14.375,13.875 Z"></path>
</svg>