<?xml version="1.0" encoding="UTF-8"?>
<svg width="20px" height="20px" viewBox="0 0 20 20" version="1.1" xmlns="http://www.w3.org/2000/svg">
    <path d="M4.125,10.625 L5.11875,10.625 C5.1875,10.625 5.24375,10.56875 5.24375,10.5 L5.24375,6.5109375 L13.503125,6.5109375 L13.503125,7.6453125 C13.503125,7.675 13.5125,7.703125 13.53125,7.7265625 C13.5765625,7.7828125 13.6578125,7.79375 13.7140625,7.7484375 L15.953125,5.990625 C16.0203125,5.9125 16.009375,5.8296875 15.953125,5.784375 L13.7140625,4.028125 C13.690625,4.009375 13.6625,4 13.6328125,4 C13.5609375,4 13.5015625,4.059375 13.5015625,4.13125 L13.5015625,5.265625 L5.1203125,5.265625 C4.503125,5.265625 4,5.76875 4,6.3875 L4,10.5 C4,10.56875 4.05625,10.625 4.125,10.625 Z M15.875,9.375 L14.88125,9.375 C14.8125,9.375 14.75625,9.43125 14.75625,9.5 L14.75625,13.4890625 L6.496875,13.4890625 L6.496875,12.3546875 C6.496875,12.325 6.4875,12.296875 6.46875,12.2734375 C6.4234375,12.2171875 6.3421875,12.20625 6.2859375,12.2515625 L4.046875,14.009375 C3.9796875,14.0875 3.990625,14.1703125 4.046875,14.215625 L6.2859375,15.971875 C6.309375,15.990625 6.3375,16 6.3671875,16 C6.4390625,16 6.4984375,15.940625 6.4984375,15.86875 L6.4984375,14.734375 L14.8828125,14.734375 C15.5,14.734375 16.003125,14.23125 16.003125,13.6125 L16.003125,9.5 C16,9.43125 15.94375,9.375 15.875,9.375 Z"></path>
</svg>