<svg width="128" height="128" viewBox="0 0 128 128" xmlns="http://www.w3.org/2000/svg" xmlns:xlink="http://www.w3.org/1999/xlink">
<path fill-rule="evenodd" clip-rule="evenodd" d="M1.86016 9.31856C0 12.9693 0 17.7484 0 27.3067V100.693C0 110.252 0 115.031 1.86016 118.681C3.49639 121.893 6.10726 124.504 9.31856 126.14C12.9693 128 17.7484 128 27.3067 128H100.693C110.252 128 115.031 128 118.681 126.14C121.893 124.504 124.504 121.893 126.14 118.681C128 115.031 128 110.252 128 100.693V27.3067C128 17.7484 128 12.9693 126.14 9.31856C124.504 6.10726 121.893 3.49639 118.681 1.86016C115.031 0 110.252 0 100.693 0H27.3067C17.7484 0 12.9693 0 9.31856 1.86016C6.10726 3.49639 3.49639 6.10726 1.86016 9.31856ZM64 102.4C85.2077 102.4 102.4 85.2077 102.4 64C102.4 42.7923 85.2077 25.6 64 25.6C42.7923 25.6 25.6 42.7923 25.6 64C25.6 85.2077 42.7923 102.4 64 102.4ZM64 110.933C89.9206 110.933 110.933 89.9206 110.933 64C110.933 38.0794 89.9206 17.0667 64 17.0667C38.0794 17.0667 17.0667 38.0794 17.0667 64C17.0667 89.9206 38.0794 110.933 64 110.933ZM64 34.1334C66.3564 34.1334 68.2667 36.0436 68.2667 38.4V62.2327L84.0837 78.0497C85.7499 79.7159 85.7499 82.4174 84.0837 84.0837C82.4174 85.7499 79.7159 85.7499 78.0497 84.0837L60.983 67.017C60.1829 66.2169 59.7334 65.1316 59.7334 64V38.4C59.7334 36.0436 61.6436 34.1334 64 34.1334Z" fill="#7C8CA7"/>
</svg>
