<svg width="128" height="128" viewBox="0 0 128 128" xmlns="http://www.w3.org/2000/svg" xmlns:xlink="http://www.w3.org/1999/xlink">
<path fill-rule="evenodd" clip-rule="evenodd" d="M1.86016 9.31856C0 12.9693 0 17.7484 0 27.3067V100.693C0 110.252 0 115.031 1.86016 118.681C3.49639 121.893 6.10726 124.504 9.31856 126.14C12.9693 128 17.7484 128 27.3067 128H100.693C110.252 128 115.031 128 118.681 126.14C121.893 124.504 124.504 121.893 126.14 118.681C128 115.031 128 110.252 128 100.693V27.3067C128 17.7484 128 12.9693 126.14 9.31856C124.504 6.10726 121.893 3.49639 118.681 1.86016C115.031 0 110.252 0 100.693 0H27.3067C17.7484 0 12.9693 0 9.31856 1.86016C6.10726 3.49639 3.49639 6.10726 1.86016 9.31856ZM68.4743 23.5889C64.6381 22.0269 60.5355 21.3014 56.4168 21.4613C51.4989 21.0616 46.5623 21.601 41.843 23.0433C37.3769 24.4083 36.4985 29.8042 39.3846 32.7832L53.274 47.1197L47.6583 52.9253L33.8054 38.6342C31.0758 35.8182 25.9622 36.2371 24.1819 40.3273C22.2775 44.7024 21.3034 49.4683 21.334 54.2909L21.3343 54.3153C21.3888 58.8249 22.2804 63.2847 23.9639 67.4418C25.6475 71.5991 28.0933 75.3799 31.1731 78.5618C34.2534 81.7443 37.9086 84.2661 41.9365 85.9702C45.9553 87.6704 50.259 88.5201 54.6004 88.4641C58.4916 88.4649 62.3413 87.761 65.9842 86.3958L81.4558 102.274L81.4717 102.291C84.2084 105.07 87.9035 106.667 91.7988 106.667C95.6942 106.667 99.3892 105.07 102.126 102.291L102.179 102.236L102.499 101.888C103.815 100.522 104.853 98.9083 105.563 97.1443C106.282 95.3593 106.655 93.4485 106.666 91.5218C106.678 89.595 106.327 87.6799 105.629 85.8863C104.94 84.1133 103.921 82.4863 102.622 81.1041C102.568 81.0434 102.506 80.9773 102.436 80.9081L102.214 80.6745L102.15 80.6339L86.3289 64.3955C87.3084 61.143 87.8096 57.7488 87.8127 54.3313C87.9458 49.9916 87.2347 45.6643 85.7181 41.6168C84.193 37.5463 81.8826 33.8379 78.9194 30.732C75.9557 27.6254 72.4018 25.1882 68.4743 23.5889ZM102.891 81.4397C103.008 81.6013 102.96 81.5093 102.795 81.3108C102.815 81.3368 102.832 81.3596 102.846 81.3789C102.863 81.4013 102.876 81.4189 102.884 81.4308L102.891 81.4397ZM60.2512 42.0578L48.7646 30.2015C51.1396 29.8463 53.55 29.7725 55.9519 29.9858L56.2449 30.0118L56.5387 29.9974C59.5041 29.8516 62.4711 30.3582 65.2562 31.4922C68.0421 32.6266 70.5947 34.3682 72.7452 36.6224C74.8964 38.8772 76.5972 41.5949 77.7273 44.6109C78.8575 47.6272 79.3886 50.8672 79.2816 54.1237L79.2792 54.1963L79.2793 54.2688C79.2832 57.5917 78.6653 60.877 77.4668 63.9327L76.4614 66.496L96.5853 87.1503C97.0379 87.6772 97.41 88.2947 97.6765 88.9798C97.9812 89.7632 98.1383 90.611 98.1333 91.4717C98.1282 92.3324 97.9612 93.1777 97.6476 93.9562C97.3342 94.7344 96.884 95.4223 96.3353 95.9862L96.2911 96.0316L95.9989 96.3503C94.8202 97.5233 93.3141 98.1333 91.7988 98.1333C90.2663 98.1333 88.7431 97.5094 87.5585 96.31L87.5518 96.3031L67.8992 76.1335L65.1261 77.486C61.8076 79.1046 58.2098 79.9346 54.5784 79.9303L54.5139 79.9312C51.354 79.9752 48.2108 79.3591 45.2615 78.1113C42.3114 76.8632 39.6054 75.004 37.3047 72.6271C35.0035 70.2495 33.154 67.4013 31.8733 64.2387C30.5939 61.0796 29.9104 57.6763 29.8672 54.2245C29.8541 51.9945 30.1257 49.7854 30.666 47.6558L42.6008 59.9681C43.9124 61.3191 45.7221 62.122 47.6594 62.122C49.5967 62.122 51.4119 61.3135 52.7235 59.9625L60.0875 52.3495C60.2597 52.195 60.4235 52.023 60.5755 51.8327C61.1119 51.2122 61.5329 50.5067 61.8265 49.7521C62.1633 48.8863 62.329 47.9654 62.3191 47.0425C62.3092 46.1195 62.1239 45.2021 61.768 44.3432C61.4178 43.498 60.9061 42.7189 60.2512 42.0578Z" fill="#7C8CA7"/>
</svg>
