<?xml version="1.0" encoding="UTF-8"?>
<svg width="20px" height="20px" viewBox="0 0 20 20" version="1.1" xmlns="http://www.w3.org/2000/svg">
    <path d="M6.8765625,11.2421875 C6.925,11.290625 7.0046875,11.290625 7.053125,11.2421875 L8.64375,9.6515625 L9.9890625,10.9984375 C10.0375,11.046875 10.1171875,11.046875 10.165625,10.9984375 L13.7015625,7.459375 C13.75,7.4109375 13.75,7.33125 13.7015625,7.2828125 L13.1265625,6.7078125 C13.078125,6.659375 12.9984375,6.659375 12.95,6.7078125 L10.078125,9.5828125 L8.7328125,8.2359375 C8.684375,8.1875 8.6046875,8.1875 8.55625,8.2359375 L6.3015625,10.490625 C6.253125,10.5390625 6.253125,10.61875 6.3015625,10.6671875 L6.8765625,11.2421875 L6.8765625,11.2421875 Z M16.125,4.5 L10.5625,4.5 L10.5625,3.5 C10.5625,3.43125 10.50625,3.375 10.4375,3.375 L9.5625,3.375 C9.49375,3.375 9.4375,3.43125 9.4375,3.5 L9.4375,4.5 L3.875,4.5 C3.5984375,4.5 3.375,4.7234375 3.375,5 L3.375,13.125 C3.375,13.4015625 3.5984375,13.625 3.875,13.625 L9.44375,13.625 L9.44375,14.125 L6.86875,15.8140625 C6.8109375,15.8515625 6.7953125,15.928125 6.8328125,15.9859375 L7.30625,16.7234375 L7.30625,16.725 C7.34375,16.7828125 7.421875,16.7984375 7.4796875,16.7609375 L10,15.1078125 L12.5203125,16.7609375 C12.578125,16.7984375 12.65625,16.7828125 12.69375,16.725 L12.69375,16.7234375 L13.1671875,15.9859375 C13.2046875,15.928125 13.1875,15.8515625 13.13125,15.8140625 L10.5625,14.1296875 L10.5625,13.625 L16.125,13.625 C16.4015625,13.625 16.625,13.4015625 16.625,13.125 L16.625,5 C16.625,4.7234375 16.4015625,4.5 16.125,4.5 Z M15.5,12.5 L4.5,12.5 L4.5,5.625 L15.5,5.625 L15.5,12.5 Z"></path>
</svg>