<svg width="128" height="128" viewBox="0 0 128 128" xmlns="http://www.w3.org/2000/svg" xmlns:xlink="http://www.w3.org/1999/xlink">
    <path fill-rule="evenodd" clip-rule="evenodd" d="M1.86016 9.31856C0 12.9693 0 17.7484 0 27.3067V100.693C0 110.252 0 115.031 1.86016 118.681C3.49639 121.893 6.10726 124.504 9.31856 126.14C12.9693 128 17.7484 128 27.3067 128H100.693C110.252 128 115.031 128 118.681 126.14C121.893 124.504 124.504 121.893 126.14 118.681C128 115.031 128 110.252 128 100.693V27.3067C128 17.7484 128 12.9693 126.14 9.31856C124.504 6.10726 121.893 3.49639 118.681 1.86016C115.031 0 110.252 0 100.693 0H27.3067C17.7484 0 12.9693 0 9.31856 1.86016C6.10726 3.49639 3.49639 6.10726 1.86016 9.31856ZM62.3269 115.016C62.644 115.132 62.9779 115.194 63.3151 115.2C63.8763 115.188 64.4347 115.118 64.9814 114.99C73.3161 112.292 80.9742 107.814 87.4326 101.862C88.1141 101.21 88.5109 100.313 88.5356 99.3674C88.5553 98.8879 88.4784 98.4093 88.3094 97.9605C88.1405 97.5117 87.8831 97.102 87.5527 96.756C87.2223 96.4101 86.8258 96.1351 86.387 95.9477C85.9483 95.7602 85.4763 95.6641 84.9997 95.6652C84.0875 95.6643 83.2089 96.0114 82.5408 96.6367C77.3146 101.392 71.206 105.059 64.5668 107.428C63.8523 107.708 63.0595 107.708 62.3451 107.428C43.0074 99.4987 30.7935 85.4777 26.0582 65.7592C24.066 57.3741 23.4791 48.7128 24.3215 40.1329C24.3714 39.5993 24.5624 39.0888 24.8747 38.6548C25.1871 38.2207 25.6092 37.8788 26.0973 37.6648C33.8965 34.199 51.9331 25.7444 62.2565 20.8345C62.649 20.657 63.0752 20.5674 63.5055 20.5719C63.9383 20.568 64.3668 20.6575 64.7623 20.8345L65.4012 21.1495C71.5133 24.0377 92.1366 33.7526 100.932 37.6648C101.418 37.8789 101.838 38.2211 102.148 38.6555C102.457 39.0899 102.644 39.6003 102.689 40.1329V40.2905C102.732 40.8173 102.791 41.3427 102.867 41.8658V41.8921C104.875 54.1721 102.728 66.7756 96.7703 77.6796C96.3116 78.4895 96.1896 79.4492 96.4309 80.3494C96.6722 81.2495 97.2573 82.017 98.0584 82.4845C98.872 82.9215 99.8164 83.043 100.713 82.8259C101.586 82.5642 102.33 81.9835 102.799 81.198C110.533 67.3709 112.858 51.1332 109.318 35.6693C109.313 35.6508 109.307 35.6323 109.3 35.6137C109.288 35.5798 109.276 35.5458 109.276 35.5118V35.4855C109.244 35.3827 109.221 35.2773 109.206 35.1705C109.091 34.5524 108.812 33.9771 108.399 33.5056C107.986 33.0341 107.454 32.6839 106.859 32.4923L106.828 32.4661C105.133 31.8622 88.9137 24.3003 65.0752 13.1413C64.6166 12.9234 64.1169 12.807 63.6098 12.8C63.097 12.8084 62.5916 12.9247 62.1261 13.1413C47.4037 20.0993 22.4206 31.8359 20.5223 32.4923L20.3632 32.5448H20.2589C19.7068 32.7363 19.2138 33.0695 18.8288 33.5116C18.4437 33.9537 18.1799 34.4893 18.0633 35.0654C18.0545 35.145 18.0406 35.224 18.0216 35.3017V35.3543L17.9486 35.5643C16.4188 46.1206 16.8823 56.8728 19.315 67.2558C23.0282 83.0884 33.508 104.225 62.3269 115.016ZM85.8107 91.7268C86.4565 92.202 87.235 92.4593 88.0349 92.462C88.4981 92.4595 88.9563 92.3652 89.3833 92.1845C89.8102 92.0037 90.1977 91.7399 90.5234 91.4083C90.8491 91.0767 91.1067 90.6837 91.2815 90.2518C91.4563 89.8198 91.5448 89.3575 91.5421 88.8911V88.7335C91.5131 88.2568 91.3899 87.7907 91.18 87.3624C90.97 86.9341 90.6773 86.5523 90.3191 86.2392L89.988 85.9504V85.9766L75.9201 74.03L76.4417 73.2685C79.742 68.529 81.0483 62.6682 80.0759 56.9631C79.1034 51.258 75.931 46.1712 71.25 42.8111C66.5508 39.4832 60.7311 38.1712 55.0712 39.1639C49.4114 40.1566 44.375 43.3726 41.0699 48.1044C37.7649 52.8362 36.462 58.6962 37.4479 64.3952C38.4337 70.0943 41.6276 75.1656 46.3268 78.4935C49.7736 80.954 53.8636 82.3383 58.0866 82.4737C62.3095 82.6091 66.4787 81.4897 70.074 79.255L70.6972 78.8611L85.782 91.7005L85.8107 91.7268ZM49.4167 49.21C52.0572 47.053 55.3596 45.8863 58.7597 45.9093H58.7649C60.672 45.9048 62.5608 46.2833 64.3209 47.0227C66.0809 47.762 67.6769 48.8474 69.0153 50.2154C71.4244 52.6314 72.9254 55.815 73.2617 59.2219C73.5981 62.6288 72.749 66.0476 70.8595 68.8939C68.9699 71.7403 66.1573 73.8375 62.9024 74.8272C59.6474 75.8169 56.1521 75.6376 53.0139 74.3199C49.8756 73.0023 47.2893 70.6281 45.6968 67.6031C44.1044 64.5781 43.6047 61.0901 44.2832 57.7352C44.9617 54.3804 46.7762 51.367 49.4167 49.21Z" fill="#7C8CA7"/>
</svg>
