<?xml version="1.0" encoding="UTF-8"?>
<svg width="20px" height="20px" viewBox="0 0 20 20" version="1.1" xmlns="http://www.w3.org/2000/svg">
    <path d="M16.7890625,9.890625 L10.7515625,3.85625 L10.346875,3.4515625 C10.1546875,3.2609375 9.8453125,3.2609375 9.653125,3.4515625 L3.2109375,9.890625 C3.01875,10.0828125 2.915625,10.3375 2.91717,10.609375 C2.9234375,11.159375 3.38125,11.5984375 3.93125,11.5984375 L4.5953125,11.5984375 L4.5953125,16.6875 L15.4046875,16.6875 L15.4046875,11.5984375 L16.0828125,11.5984375 C16.35,11.5984375 16.6015625,11.49375 16.790625,11.3046875 C16.9796875,11.115625 17.0828125,10.8640625 17.0828125,10.596875 C17.0828125,10.33125 16.978125,10.0796875 16.7890625,9.890625 Z M10.875,15.5625 L9.125,15.5625 L9.125,12.375 L10.875,12.375 L10.875,15.5625 Z M14.2796875,10.4734375 L14.2796875,15.5625 L11.875,15.5625 L11.875,12 C11.875,11.6546875 11.5953125,11.375 11.25,11.375 L8.75,11.375 C8.4046875,11.375 8.125,11.6546875 8.125,12 L8.125,15.5625 L5.7203125,15.5625 L5.7203125,10.4734375 L4.2203125,10.4734375 L10.0015625,4.696875 L10.3625,5.0578125 L15.78125,10.4734375 L14.2796875,10.4734375 Z"></path>
</svg>