<?xml version="1.0" encoding="UTF-8"?>
<svg width="20px" height="20px" viewBox="0 0 20 20" version="1.1" xmlns="http://www.w3.org/2000/svg">
    <path d="M15.8796875,12.83125 C15.215625,12.446875 14.40625,12.55 13.8609375,13.03125 L13.0328125,12.5515625 L13.0328125,10.18125 C13.0328125,9.9359375 12.9015625,9.7078125 12.6890625,9.5859375 L10.5640625,8.3625 L10.5640625,7.3140625 C11.2546875,7.0796875 11.7515625,6.4265625 11.7515625,5.65625 C11.7515625,4.6890625 10.96875,3.90625 10.0015625,3.90625 C9.034375,3.90625 8.2515625,4.6890625 8.2515625,5.65625 C8.2515625,6.4265625 8.7484375,7.0796875 9.4390625,7.3140625 L9.4390625,8.3625 L7.3140625,9.5859375 C7.1015625,9.7078125 6.9703125,9.9359375 6.9703125,10.18125 L6.9703125,12.55 L6.1421875,13.0296875 C5.596875,12.5484375 4.7859375,12.4453125 4.1234375,12.8296875 C3.2875,13.3140625 3.003125,14.3828125 3.4828125,15.21875 C3.9640625,16.0546875 5.028125,16.3421875 5.8609375,15.859375 C6.525,15.475 6.840625,14.71875 6.6984375,14.003125 L7.459375,13.5609375 L9.65625,14.8265625 C9.7625,14.8875 9.88125,14.91875 10,14.91875 C10.11875,14.91875 10.2375,14.8875 10.34375,14.8265625 L12.5390625,13.5625 L13.3,14.0046875 C13.1578125,14.71875 13.475,15.4765625 14.1375,15.8609375 C14.9703125,16.34375 16.0359375,16.0578125 16.515625,15.2203125 C16.996875,14.3828125 16.7125,13.3140625 15.8796875,12.83125 Z M5.3640625,14.99375 C5.0078125,15.2 4.55,15.078125 4.3453125,14.71875 C4.1390625,14.3609375 4.2609375,13.9015625 4.61875,13.6953125 C4.975,13.4890625 5.4328125,13.6109375 5.6375,13.9703125 C5.84375,14.328125 5.721875,14.7875 5.3640625,14.99375 Z M9.25,5.65625 C9.25,5.2421875 9.5859375,4.90625 10,4.90625 C10.4140625,4.90625 10.75,5.2421875 10.75,5.65625 C10.75,6.0703125 10.4140625,6.40625 10,6.40625 C9.5859375,6.40625 9.25,6.0703125 9.25,5.65625 Z M11.90625,12.628125 L10,13.7265625 L8.09375,12.628125 L8.09375,10.434375 L10,9.3359375 L11.90625,10.434375 L11.90625,12.628125 L11.90625,12.628125 Z M15.6546875,14.7203125 C15.4484375,15.078125 14.9921875,15.2015625 14.6359375,14.9953125 C14.2796875,14.7890625 14.15625,14.3296875 14.3625,13.971875 C14.56875,13.6140625 15.025,13.490625 15.38125,13.696875 C15.7390625,13.903125 15.8609375,14.3609375 15.6546875,14.7203125 Z"></path>
</svg>