<svg width="128" height="128" viewBox="0 0 128 128" xmlns="http://www.w3.org/2000/svg" xmlns:xlink="http://www.w3.org/1999/xlink">
<path fill-rule="evenodd" clip-rule="evenodd" d="M1.86016 9.31856C0 12.9693 0 17.7484 0 27.3067V100.693C0 110.252 0 115.031 1.86016 118.681C3.49639 121.893 6.10726 124.504 9.31856 126.14C12.9693 128 17.7484 128 27.3067 128H100.693C110.252 128 115.031 128 118.681 126.14C121.893 124.504 124.504 121.893 126.14 118.681C128 115.031 128 110.252 128 100.693V27.3067C128 17.7484 128 12.9693 126.14 9.31856C124.504 6.10726 121.893 3.49639 118.681 1.86016C115.031 0 110.252 0 100.693 0H27.3067C17.7484 0 12.9693 0 9.31856 1.86016C6.10726 3.49639 3.49639 6.10726 1.86016 9.31856ZM64 17.0667C61.6436 17.0667 59.7333 18.9769 59.7333 21.3333C59.7333 23.6898 61.6436 25.6 64 25.6C85.2077 25.6 102.4 42.7923 102.4 64C102.4 85.2077 85.2077 102.4 64 102.4C42.7923 102.4 25.6 85.2077 25.6 64C25.6 61.6436 23.6898 59.7333 21.3333 59.7333C18.9769 59.7333 17.0667 61.6436 17.0667 64C17.0667 89.9206 38.0794 110.933 64 110.933C89.9206 110.933 110.933 89.9206 110.933 64C110.933 38.0794 89.9206 17.0667 64 17.0667ZM64 76.8C71.0693 76.8 76.8 71.0693 76.8 64C76.8 56.9308 71.0693 51.2 64 51.2C62.0239 51.2 60.1524 51.6478 58.4814 52.4475L32.8837 26.8497C31.2174 25.1835 28.5159 25.1835 26.8497 26.8497C25.1835 28.5159 25.1835 31.2174 26.8497 32.8837L52.4475 58.4814C51.6478 60.1524 51.2 62.0239 51.2 64C51.2 71.0693 56.9308 76.8 64 76.8Z" fill="#7C8CA7"/>
</svg>
