<svg width="128" height="128" viewBox="0 0 128 128" xmlns="http://www.w3.org/2000/svg" xmlns:xlink="http://www.w3.org/1999/xlink">
<path fill-rule="evenodd" clip-rule="evenodd" d="M1.86016 9.31856C0 12.9693 0 17.7484 0 27.3067V100.693C0 110.252 0 115.031 1.86016 118.681C3.49639 121.893 6.10726 124.504 9.31856 126.14C12.9693 128 17.7484 128 27.3067 128H100.693C110.252 128 115.031 128 118.681 126.14C121.893 124.504 124.504 121.893 126.14 118.681C128 115.031 128 110.252 128 100.693V27.3067C128 17.7484 128 12.9693 126.14 9.31856C124.504 6.10726 121.893 3.49639 118.681 1.86016C115.031 0 110.252 0 100.693 0H27.3067C17.7484 0 12.9693 0 9.31856 1.86016C6.10726 3.49639 3.49639 6.10726 1.86016 9.31856ZM29.8667 25.7904C27.5103 25.7904 25.6 27.7433 25.6 30.1523V91.2183C25.6 93.6273 27.5103 95.5802 29.8667 95.5802H49.5701C52.2926 95.5802 54.9441 96.4676 57.1395 98.1135L61.4769 101.365C62.9787 102.491 65.0213 102.491 66.5232 101.365L70.8605 98.1135C73.0559 96.4676 75.7075 95.5802 78.4299 95.5802H98.1333C100.49 95.5802 102.4 93.6273 102.4 91.2183V30.1523C102.4 27.7433 100.49 25.7904 98.1333 25.7904H78.4299C77.5224 25.7904 76.6386 26.0862 75.9068 26.6348L71.5695 29.8865C70.5403 30.6581 69.4265 31.2534 68.2667 31.6724V81.0667C68.2667 83.4231 66.3564 85.3334 64 85.3334C61.6436 85.3334 59.7334 83.4231 59.7334 81.0667V31.6724C58.5735 31.2534 57.4597 30.6581 56.4305 29.8865L52.0932 26.6348C51.3614 26.0862 50.4776 25.7904 49.5701 25.7904H29.8667ZM17.0667 30.1523C17.0667 22.9253 22.7974 17.0667 29.8667 17.0667H49.5701C52.2925 17.0667 54.9441 17.9541 57.1395 19.6L61.4769 22.8516C62.9787 23.9776 65.0213 23.9776 66.5232 22.8516L70.8605 19.6C73.0559 17.9541 75.7075 17.0667 78.4299 17.0667H98.1333C105.203 17.0667 110.933 22.9253 110.933 30.1523V91.2183C110.933 98.4453 105.203 104.304 98.1333 104.304H78.4299C77.5224 104.304 76.6386 104.6 75.9068 105.148L71.5695 108.4C67.064 111.778 60.936 111.778 56.4305 108.4L52.0932 105.148C51.3614 104.6 50.4776 104.304 49.5701 104.304H29.8667C22.7974 104.304 17.0667 98.4453 17.0667 91.2183V30.1523Z" fill="#7C8CA7"/>
</svg>
