<svg width="128" height="128" viewBox="0 0 128 128" xmlns="http://www.w3.org/2000/svg" xmlns:xlink="http://www.w3.org/1999/xlink">
<path fill-rule="evenodd" clip-rule="evenodd" d="M1.86016 9.31856C0 12.9693 0 17.7484 0 27.3067V100.693C0 110.252 0 115.031 1.86016 118.681C3.49639 121.893 6.10726 124.504 9.31856 126.14C12.9693 128 17.7484 128 27.3067 128H100.693C110.252 128 115.031 128 118.681 126.14C121.893 124.504 124.504 121.893 126.14 118.681C128 115.031 128 110.252 128 100.693V27.3067C128 17.7484 128 12.9693 126.14 9.31856C124.504 6.10726 121.893 3.49639 118.681 1.86016C115.031 0 110.252 0 100.693 0H27.3067C17.7484 0 12.9693 0 9.31856 1.86016C6.10726 3.49639 3.49639 6.10726 1.86016 9.31856ZM93.8646 32.1783L64 25.6443L34.1355 32.1786V61.3924C34.1355 81.935 48.7238 97.1497 63.9867 102.164C79.1028 97.1336 93.8646 81.889 93.8646 61.3924V32.1783ZM63.5191 110.933C44.5607 105.718 25.6021 87.2051 25.6021 61.3924V27.496C25.578 26.8829 25.7592 26.281 26.1122 25.8019C26.4652 25.3228 26.9661 24.999 27.5221 24.8904L63.2799 17.0667H64.7201L100.479 24.8904C101.035 24.9995 101.535 25.3236 101.888 25.8026C102.241 26.2816 102.422 26.8831 102.398 27.496V61.3924C102.398 87.2051 83.199 105.718 64.4797 110.933H63.5191ZM84.0837 43.9164C85.7499 45.5826 85.7499 48.2841 84.0837 49.9503L58.4837 75.5503C56.8174 77.2166 54.1159 77.2166 52.4497 75.5503L43.9164 67.017C42.2501 65.3508 42.2501 62.6493 43.9164 60.983C45.5826 59.3168 48.2841 59.3168 49.9503 60.983L55.4667 66.4994L78.0497 43.9164C79.7159 42.2501 82.4174 42.2501 84.0837 43.9164Z" fill="#7C8CA7"/>
</svg>
