<svg width="128" height="128" viewBox="0 0 128 128" xmlns="http://www.w3.org/2000/svg" xmlns:xlink="http://www.w3.org/1999/xlink">
<path fill-rule="evenodd" clip-rule="evenodd" d="M1.86016 9.31856C0 12.9693 0 17.7484 0 27.3067V100.693C0 110.252 0 115.031 1.86016 118.681C3.49639 121.893 6.10726 124.504 9.31856 126.14C12.9693 128 17.7484 128 27.3067 128H100.693C110.252 128 115.031 128 118.681 126.14C121.893 124.504 124.504 121.893 126.14 118.681C128 115.031 128 110.252 128 100.693V27.3067C128 17.7484 128 12.9693 126.14 9.31856C124.504 6.10726 121.893 3.49639 118.681 1.86016C115.031 0 110.252 0 100.693 0H27.3067C17.7484 0 12.9693 0 9.31856 1.86016C6.10726 3.49639 3.49639 6.10726 1.86016 9.31856ZM34.1333 25.6H93.8667C98.5795 25.6 102.4 29.4205 102.4 34.1333V51.2H25.6V34.1333C25.6 29.4205 29.4205 25.6 34.1333 25.6ZM25.6 59.7334V68.2667H102.4V59.7334H25.6ZM25.6 93.8667V76.8H102.4V93.8667C102.4 98.5795 98.5795 102.4 93.8667 102.4H34.1333C29.4205 102.4 25.6 98.5795 25.6 93.8667ZM110.933 93.8667V72.5449L110.933 72.5333L110.933 72.5218V55.4782L110.933 55.4667L110.933 55.4551V34.1333C110.933 24.7077 103.292 17.0667 93.8667 17.0667H34.1333C24.7077 17.0667 17.0667 24.7077 17.0667 34.1333V93.8667C17.0667 103.292 24.7077 110.933 34.1333 110.933H93.8667C103.292 110.933 110.933 103.292 110.933 93.8667ZM72.5333 34.1334C70.1769 34.1334 68.2667 36.0436 68.2667 38.4C68.2667 40.7564 70.1769 42.6667 72.5333 42.6667H89.6C91.9564 42.6667 93.8667 40.7564 93.8667 38.4C93.8667 36.0436 91.9564 34.1334 89.6 34.1334H72.5333ZM68.2667 89.6C68.2667 87.2436 70.1769 85.3334 72.5333 85.3334H89.6C91.9564 85.3334 93.8667 87.2436 93.8667 89.6C93.8667 91.9564 91.9564 93.8667 89.6 93.8667H72.5333C70.1769 93.8667 68.2667 91.9564 68.2667 89.6Z" fill="#7C8CA7"/>
</svg>
