<?xml version="1.0" encoding="UTF-8"?>
<svg width="20px" height="20px" viewBox="0 0 20 20" version="1.1" xmlns="http://www.w3.org/2000/svg">
    <path d="M15.9578125,6.5828125 L13.4171875,4.0421875 C13.3,3.925 13.15625,3.8390625 13,3.7921875 L13,3.75 L4.25,3.75 C3.9734375,3.75 3.75,3.9734375 3.75,4.25 L3.75,15.75 C3.75,16.0265625 3.9734375,16.25 4.25,16.25 L15.75,16.25 C16.0265625,16.25 16.25,16.0265625 16.25,15.75 L16.25,7.2890625 C16.25,7.0234375 16.1453125,6.7703125 15.9578125,6.5828125 Z M8,4.875 L12,4.875 L12,6.5 L8,6.5 L8,4.875 Z M15.125,15.125 L4.875,15.125 L4.875,4.875 L7,4.875 L7,7 C7,7.2765625 7.2234375,7.5 7.5,7.5 L12.5,7.5 C12.7765625,7.5 13,7.2765625 13,7 L13,5.215625 L15.125,7.340625 L15.125,15.125 Z M10,8.90625 C8.7578125,8.90625 7.75,9.9140625 7.75,11.15625 C7.75,12.3984375 8.7578125,13.40625 10,13.40625 C11.2421875,13.40625 12.25,12.3984375 12.25,11.15625 C12.25,9.9140625 11.2421875,8.90625 10,8.90625 Z M10,12.40625 C9.309375,12.40625 8.75,11.846875 8.75,11.15625 C8.75,10.465625 9.309375,9.90625 10,9.90625 C10.690625,9.90625 11.25,10.465625 11.25,11.15625 C11.25,11.846875 10.690625,12.40625 10,12.40625 Z"></path>
</svg>