<svg width="18" height="18" viewBox="0 0 18 18" xmlns="http://www.w3.org/2000/svg">
<path d="M14.25 12V9.75H6.75V8.25H14.25V6L17.25 9L14.25 12ZM11.25 1.5C11.6478 1.5 12.0294 1.65804 12.3107 1.93934C12.592 2.22064 12.75 2.60218 12.75 3V4.5H11.25V3H3.75V15H11.25V13.5H12.75V15C12.75 15.3978 12.592 15.7794 12.3107 16.0607C12.0294 16.342 11.6478 16.5 11.25 16.5H3.75C3.35218 16.5 2.97064 16.342 2.68934 16.0607C2.40804 15.7794 2.25 15.3978 2.25 15V3C2.25 2.60218 2.40804 2.22064 2.68934 1.93934C2.97064 1.65804 3.35218 1.5 3.75 1.5H11.25Z" fill="#5439FF"/>
</svg>
