<?xml version="1.0" encoding="UTF-8"?>
<svg width="20px" height="20px" viewBox="0 0 20 20" version="1.1" xmlns="http://www.w3.org/2000/svg" xmlns:xlink="http://www.w3.org/1999/xlink">
    <path d="M17.7167969,8.43945312 L15.9785156,6.67773438 L14.328125,8.3515625 L13.7792969,8.3515625 L12.1035156,6.6875 L10.453125,8.32617188 C9.84960938,6.38867188 8.08203125,4.98632813 5.99609375,4.98632813 C3.41210938,4.98632813 1.31640625,7.140625 1.31640625,9.796875 C1.31640625,12.453125 3.41210938,14.6074219 5.99609375,14.6074219 C8.09179688,14.6074219 9.86523438,13.1914062 10.4609375,11.2402344 L17.234375,11.2402344 C18.0058594,11.2402344 18.6308594,10.6074219 18.6308594,9.82617188 L18.6308594,9.765625 C18.6308594,9.15625 18.25,8.63867188 17.7167969,8.43945312 Z M5.99609375,11.7167969 C4.96289063,11.7167969 4.125,10.8554688 4.125,9.79296875 C4.125,8.73046875 4.96289063,7.86914062 5.99609375,7.86914062 C7.02929688,7.86914062 7.8671875,8.73046875 7.8671875,9.79296875 C7.8671875,10.8554688 7.02929688,11.7167969 5.99609375,11.7167969 Z"></path>
</svg>