<?xml version="1.0" encoding="UTF-8"?>
<svg width="20px" height="20px" viewBox="0 0 20 20" version="1.1" xmlns="http://www.w3.org/2000/svg" xmlns:xlink="http://www.w3.org/1999/xlink">
    <path d="M9.99625,10 C12.36625,10 14.29,8.04 14.29,5.6225 C14.29,3.205 12.36625,1.24625 9.99625,1.24625 C7.625,1.24625 5.7025,3.205 5.7025,5.6225 C5.7025,8.04 7.62375,10 9.99625,10 Z M15.91125,12.73125 C14.93,11.58875 14.59875,11.195 12.8025,11.09 L7.19625,11.09 C5.39875,11.1975 5.06875,11.58875 4.09,12.73125 C3.0475,13.91 2.2175,15.4075 2.61,17.26 C3.0475,18.47375 4.225,18.7525 5.3425,18.7525 L14.66,18.7525 C15.77625,18.7525 16.95625,18.47125 17.39375,17.26 C17.7825,15.4075 16.95375,13.91125 15.91125,12.73125 L15.91125,12.73125 Z"></path>
</svg>